# xmcd
#
# Track frame offsets:
#	225
#	18607
#	26676
#	41189
#	51096
#	63027
#	73759
#	85237
#	102567
#	128753
#	140323
#	152555
#	167036
#	192542
#	205969
#	230499
#	253191
#	263096
#	273522
#
# Disc length: 3901 seconds
#
# Revision: 0
# Processed by: cddbd v1.5.2PL0 Copyright (c) Steve Scherf et al.
# Submitted via: dBpowerAMP V4.0
#
DISCID=190f3a13
DTITLE=James Cotton Blues Band - Feelin' Good
DYEAR=1900
DGENRE=Blues
TTITLE0=V-8 Ford Blues
TTITLE1=Polly Pit The Kettle On
TTITLE2=So Glad I'm Living
TTITLE3=Diggin' My Potatoes
TTITLE4=Three Harp Boogie
TTITLE5=Turn On Your Lovelight
TTITLE6=Good Time Charlie
TTITLE7=Something On Your Mind
TTITLE8=Don't Start Me Talking
TTITLE9=Jelly, Jelly
TTITLE10=Off The Wall
TTITLE11=Feelin' Good
TTITLE12=Sweet Sixteen
TTITLE13=Knock On Wood
TTITLE14=Blues In My Sleep
TTITLE15=Darling With The Devil
TTITLE16=You Know It Ain't Right
TTITLE17=I Need You So Bad
TTITLE18=The Creeper
EXTD=
EXTT0=
EXTT1=
EXTT2=
EXTT3=
EXTT4=
EXTT5=
EXTT6=
EXTT7=
EXTT8=
EXTT9=
EXTT10=
EXTT11=
EXTT12=
EXTT13=
EXTT14=
EXTT15=
EXTT16=
EXTT17=
EXTT18=
PLAYORDER=
